<?xml version="1.0" encoding="UTF-8" standalone="no"?>
<!DOCTYPE svg PUBLIC "-//W3C//DTD SVG 1.1//EN" "http://www.w3.org/Graphics/SVG/1.1/DTD/svg11.dtd">
<svg width="100%" height="100%" viewBox="0 0 398 398" version="1.1" xmlns="http://www.w3.org/2000/svg" xmlns:xlink="http://www.w3.org/1999/xlink" xml:space="preserve" xmlns:serif="http://www.serif.com/" style="fill-rule:evenodd;clip-rule:evenodd;stroke-linejoin:round;stroke-miterlimit:2;">
    <g transform="matrix(1,0,0,1,-509.238,-302.374)">
        <g>
            <g transform="matrix(1,0,0,1,44.4548,-3.98138)">
                <rect x="464.783" y="306.356" width="397.189" height="397.189" style="fill:rgb(209,209,209);"/>
            </g>
            <g>
                <g transform="matrix(0.935278,0,0,0.935278,97.3908,6.56008)">
                    <path d="M652.956,359.714C679.542,359.843 705.752,371.6 723.472,391.33C735.15,404.334 743.159,420.589 746.288,437.77C753.021,474.738 735.899,514.843 703.461,535.372C668.856,557.273 620.127,553.934 588.662,525.334C575.091,512.999 565.172,496.693 560.543,478.95C551.022,442.464 565.37,401.048 596.166,378.297C612.169,366.475 631.929,359.874 652.035,359.716C652.342,359.714 652.649,359.714 652.956,359.714ZM652.41,381.098C624.622,381.233 597.532,398.502 585.745,423.731C575.891,444.821 576.858,470.568 588.189,490.827C603.031,517.364 635.12,533.007 665.714,527.536C693.363,522.591 717.209,500.522 724.177,473.111C732.43,440.643 716.028,403.518 684.62,388.374C674.606,383.545 663.468,381.081 652.41,381.098Z" style="fill:white;"/>
                </g>
                <g transform="matrix(1.20705,0,0,0.979375,-149.487,-8.65904)">
                    <path d="M755.233,555.837C774.278,556.016 793.982,566.687 803.259,588.093C806.217,594.919 807.829,602.604 807.855,610.394L807.855,700.352C807.614,706.797 802.257,711.91 797.303,710.173C794.352,709.138 791.99,705.939 791.427,702.229C791.302,701.403 791.317,701.189 791.286,700.352C791.286,670.305 791.388,640.257 791.285,610.21C791.16,597.063 782.097,585.743 772.862,580.758C767.308,577.759 761.232,576.315 755.148,576.258C725.205,576.164 695.261,576.164 665.318,576.258C648.575,576.415 630.544,588.042 629.246,608.369C629.202,609.057 629.183,609.746 629.18,610.435L629.18,700.352C628.877,708.426 620.458,713.678 615.314,707.898C613.993,706.413 613.08,704.391 612.752,702.229C612.627,701.403 612.642,701.189 612.611,700.352L612.611,610.396C612.658,595.523 618.81,581.241 628.335,571.552C638.56,561.15 651.923,555.962 665.234,555.837C695.233,555.743 725.233,555.743 755.233,555.837Z" style="fill:white;"/>
                </g>
                <g transform="matrix(1,0,0,0.840281,10.81,75.6125)">
                    <path d="M676.273,433.264C677.939,433.418 678.478,433.645 679.444,434.109C683.312,435.966 685.254,440.969 685.74,445.89C686.653,454.608 699.222,457.947 705.869,450.808C707.202,449.375 708.253,447.397 708.275,445.193C708.275,445.193 708.381,440.134 711.156,436.787C716.856,429.911 728.996,434.882 728.203,447.405C727.471,458.96 720.724,469.409 711.61,474.507C698.157,482.032 680.304,478.173 671.108,463.836C667.762,458.619 665.81,452.174 665.705,445.598C665.705,445.598 665.985,439.967 668.531,436.85C670.524,434.41 673.442,433.14 676.273,433.264Z" style="fill:white;"/>
                </g>
            </g>
        </g>
    </g>
</svg>
