<?xml version="1.0" encoding="UTF-8" standalone="no"?>
<!DOCTYPE svg PUBLIC "-//W3C//DTD SVG 1.1//EN" "http://www.w3.org/Graphics/SVG/1.1/DTD/svg11.dtd">
<svg width="100%" height="100%" viewBox="0 0 302 105" version="1.1" xmlns="http://www.w3.org/2000/svg" xmlns:xlink="http://www.w3.org/1999/xlink" xml:space="preserve" xmlns:serif="http://www.serif.com/" style="fillRule:evenodd;clipRule:evenodd;stroke-linejoin:round;stroke-miterlimit:2;">
    <g transform="matrix(1,0,0,1,-557.119,-194.452)">
        <g transform="matrix(1,0,0,1,400.348,0)">
            <g transform="matrix(1,0,0,1,-400.348,0)">
                <path d="M709.588,298.374C708.946,298.731 708.235,299.008 707.453,299.189C705.616,299.614 703.648,299.444 701.912,298.709C701.332,298.463 701.203,298.369 700.658,298.058L561.242,211.106C559.079,209.637 558.647,208.88 557.954,207.493C555.461,202.504 558.803,195.451 564.667,194.57C566.01,194.368 566.343,194.483 566.781,194.503C568.183,194.681 569.52,195.122 570.767,195.833L705.502,279.865L845.069,195.761C846.718,194.854 848.542,194.412 850.487,194.503C852.776,194.791 853.374,195.147 854.474,195.831C859.219,198.788 859.974,206.6 855.508,210.357C855.027,210.762 854.884,210.834 854.359,211.178L710.066,298.13C709.909,298.216 709.75,298.298 709.588,298.374Z"/>
            </g>
        </g>
    </g>
</svg>
