<?xml version="1.0" encoding="UTF-8" standalone="no"?>
<!DOCTYPE svg PUBLIC "-//W3C//DTD SVG 1.1//EN" "http://www.w3.org/Graphics/SVG/1.1/DTD/svg11.dtd">
<svg width="100%" height="100%" viewBox="0 0 333 269" version="1.1" xmlns="http://www.w3.org/2000/svg" xmlns:xlink="http://www.w3.org/1999/xlink" xml:space="preserve" xmlns:serif="http://www.serif.com/" style="fill-rule:evenodd;clip-rule:evenodd;stroke-linejoin:round;stroke-miterlimit:2;">
    <g transform="matrix(1,0,0,1,-473.704,-46.2601)">
        <path d="M717.21,46.623C756.11,46.891 793.426,71.295 803.535,114.671C809.772,141.43 805.397,170.909 790.868,193.843C778.976,212.616 762.303,227.934 745.06,242.316C713.721,268.454 680.024,291.634 645.721,312.538L645.392,312.738C643.092,313.737 642.52,314.265 639.94,314.265C636.948,314.265 634.238,312.594 631.68,311.02C594.58,288.186 558.358,263.315 526.098,234.838C505.618,216.76 486.245,196.794 478.226,169.74C468.056,135.434 474.682,94.91 501.744,69.495C532.593,40.523 586.882,37.849 619.264,65.973C627.984,73.546 634.87,83.078 639.94,93.51C649.873,73.074 667.616,56.921 688.823,50.507C697.981,47.738 707.431,46.595 717.21,46.623Z" style="fill:rgb(249,65,102);"/>
    </g>
</svg>
