<?xml version="1.0" encoding="UTF-8" standalone="no"?>
<!DOCTYPE svg PUBLIC "-//W3C//DTD SVG 1.1//EN" "http://www.w3.org/Graphics/SVG/1.1/DTD/svg11.dtd">
<svg width="100%" height="100%" viewBox="0 0 333 269" version="1.1" xmlns="http://www.w3.org/2000/svg" xmlns:xlink="http://www.w3.org/1999/xlink" xml:space="preserve" xmlns:serif="http://www.serif.com/" style="fill-rule:evenodd;clip-rule:evenodd;stroke-linejoin:round;stroke-miterlimit:2;">
    <g transform="matrix(1,0,0,1,-921.2,-32.9165)">
        <g transform="matrix(1,0,0,1,396.673,-246.634)">
            <path d="M768.033,279.914C806.933,280.182 844.248,304.586 854.358,347.961C860.595,374.72 856.22,404.2 841.691,427.134C829.798,445.907 813.126,461.225 795.882,475.607C764.544,501.745 730.846,524.925 696.544,545.829L696.215,546.029C693.915,547.028 693.343,547.556 690.763,547.556C687.771,547.556 685.061,545.885 682.502,544.311C645.403,521.477 609.181,496.606 576.92,468.128C556.441,450.051 537.068,430.085 529.048,403.031C518.879,368.725 525.504,328.201 552.567,302.785C583.416,273.814 637.705,271.14 670.087,299.264C678.807,306.837 685.693,316.369 690.763,326.801C700.695,306.365 718.439,290.212 739.646,283.798C748.804,281.028 758.254,279.886 768.033,279.914ZM613.596,300.913C588.621,301.086 564.149,313.584 552.749,337.85C541.181,362.472 542.942,392.797 557.575,415.895C568.797,433.609 584.971,447.865 601.303,461.311C629.517,484.538 659.547,505.298 690.353,524.474L690.763,524.729C713.625,510.546 735.817,495.197 757.439,479.078C780.377,461.977 803.522,444.053 820.103,421.508C841.237,392.774 842.639,348.329 817.711,321.253C800.411,302.462 771.055,296.368 746.008,303.814C735.843,306.837 726.61,312.664 719.526,320.809C708.644,333.324 702.399,349.8 701.243,366.003L701.243,366.011C700.66,368.709 700.789,369.591 699.025,371.84C695.227,376.682 686.608,377.052 682.516,371.858C680.636,369.472 680.526,368.69 680.239,365.462C679.417,356.682 677.055,348.009 673.665,339.942C667.409,325.055 656.051,311.827 640.906,305.697C632.277,302.205 622.862,300.887 613.596,300.913Z"/>
        </g>
    </g>
</svg>
