<?xml version="1.0" encoding="UTF-8" standalone="no"?>
<!DOCTYPE svg PUBLIC "-//W3C//DTD SVG 1.1//EN" "http://www.w3.org/Graphics/SVG/1.1/DTD/svg11.dtd">
<svg width="100%" height="100%" viewBox="0 0 333 268" version="1.1" xmlns="http://www.w3.org/2000/svg" xmlns:xlink="http://www.w3.org/1999/xlink" xml:space="preserve" xmlns:serif="http://www.serif.com/" style="fill-rule:evenodd;clip-rule:evenodd;stroke-linecap:round;stroke-linejoin:round;stroke-miterlimit:1.5;">
    <g transform="matrix(1,0,0,1,-524.477,-279.912)">
        <g transform="matrix(0.980569,0,0,0.97883,16.4249,16.6118)">
            <g transform="matrix(1.01982,0,0,1.02163,-16.7504,-16.9711)">
                <path d="M690.763,537.056C690.763,537.056 662.489,519.936 640,503.666C612.4,483.699 557.413,445.165 542.819,410.421C520.597,357.52 546.133,291.284 612.685,290.421C686.308,289.467 690.763,365.36 690.763,365.36C690.763,365.36 695.219,289.467 768.841,290.421C835.393,291.284 860.929,357.52 838.707,410.421C824.113,445.165 769.126,483.699 741.526,503.666C719.037,519.936 690.763,537.056 690.763,537.056Z" style="fill:none;stroke:black;stroke-width:21px;"/>
            </g>
        </g>
    </g>
</svg>
