<?xml version="1.0" encoding="UTF-8" standalone="no"?>
<!DOCTYPE svg PUBLIC "-//W3C//DTD SVG 1.1//EN" "http://www.w3.org/Graphics/SVG/1.1/DTD/svg11.dtd">
<svg width="100%" height="100%" viewBox="0 0 132 258" version="1.1" xmlns="http://www.w3.org/2000/svg" xmlns:xlink="http://www.w3.org/1999/xlink" xml:space="preserve" xmlns:serif="http://www.serif.com/" style="fill-rule:evenodd;clip-rule:evenodd;stroke-linejoin:round;stroke-miterlimit:2;">
    <g transform="matrix(1,0,0,1,-508.274,-62.8953)">
        <g>
            <g transform="matrix(1,0,0,1,355.558,-9.83553)">
                <path d="M164.184,72.743C169.425,73.474 173.471,77.904 173.715,83.198L173.715,320.195C173.39,327.231 165.738,332.432 159.422,329.986C156.102,328.699 153.547,325.618 152.894,322.124C152.736,321.275 152.755,321.055 152.715,320.195L152.715,83.198C152.99,77.266 157.974,72.456 164.184,72.743Z"/>
            </g>
            <g transform="matrix(1,0,0,1,465.558,-9.83553)">
                <path d="M164.184,72.743C169.434,73.475 173.471,77.904 173.715,83.198L173.715,320.195C173.409,326.822 166.62,332.08 160.342,330.294C156.602,329.23 153.608,325.939 152.894,322.124C152.736,321.275 152.755,321.055 152.715,320.195L152.715,83.198C152.99,77.266 157.974,72.456 164.184,72.743Z"/>
            </g>
        </g>
    </g>
</svg>
