<?xml version="1.0" encoding="UTF-8" standalone="no"?>
<!DOCTYPE svg PUBLIC "-//W3C//DTD SVG 1.1//EN" "http://www.w3.org/Graphics/SVG/1.1/DTD/svg11.dtd">
<svg width="100%" height="100%" viewBox="0 0 301 316" version="1.1" xmlns="http://www.w3.org/2000/svg" xmlns:xlink="http://www.w3.org/1999/xlink" xml:space="preserve" xmlns:serif="http://www.serif.com/" style="fill-rule:evenodd;clip-rule:evenodd;stroke-linejoin:round;stroke-miterlimit:2;">
    <g transform="matrix(1,0,0,1,-579.093,-375.48)">
        <g transform="matrix(0.819479,0,0,0.819479,283.299,164.639)">
            <g transform="matrix(1.22029,0,0,1.22029,-345.707,-200.907)">
                <path d="M774.054,590.97C747.076,611.939 711.052,621.013 677.205,614.631C628.466,605.441 587.168,563.877 580.144,512.571C574.104,468.447 594.446,421.621 632.213,396.098C651.838,382.837 675.527,375.592 699.257,375.48C699.516,375.48 699.775,375.48 700.035,375.48C749.337,375.713 797.215,408.606 813.801,457.077C827.116,495.989 818.654,541.436 792.035,573.552L876.309,670.148C880.592,675.35 880.062,683.712 874.835,688.015C870.252,691.79 862.905,691.647 858.469,687.603C858,687.176 857.901,687.049 857.471,686.583L774.054,590.97ZM699.336,400.48C675.285,400.594 651.555,410.063 634.107,426.501C605.156,453.777 595.437,499.867 613.328,537.267C628.726,569.455 663.116,591.604 699.336,591.72C744.305,591.864 787.36,557.111 794.252,510.073C800.18,469.618 777.812,426.641 739.236,409.046C726.752,403.352 713.105,400.458 699.336,400.48Z"/>
            </g>
        </g>
    </g>
</svg>
