<?xml version="1.0" encoding="UTF-8" standalone="no"?>
<!DOCTYPE svg PUBLIC "-//W3C//DTD SVG 1.1//EN" "http://www.w3.org/Graphics/SVG/1.1/DTD/svg11.dtd">
<svg width="100%" height="100%" viewBox="0 0 275 312" version="1.1" xmlns="http://www.w3.org/2000/svg" xmlns:xlink="http://www.w3.org/1999/xlink" xml:space="preserve" xmlns:serif="http://www.serif.com/" style="fill-rule:evenodd;clip-rule:evenodd;stroke-linecap:round;stroke-linejoin:round;stroke-miterlimit:1.5;">
    <g transform="matrix(1,0,0,1,-145.608,-390)">
        <g transform="matrix(1.12357,0,0,1.12357,-8.41088,-33.7493)">
            <g transform="matrix(0.832583,0,0,0.868823,29.3407,62.8755)">
                <path d="M195.154,455.808C164.766,455.808 140.094,479.852 140.094,509.469L140.094,616.79C140.094,646.406 164.766,670.45 195.154,670.45L356.619,670.45C387.007,670.45 411.678,646.406 411.678,616.79L411.678,509.469C411.678,479.852 387.007,455.808 356.619,455.808" style="fill:none;stroke:black;stroke-width:20.92px;"/>
            </g>
            <path id="a" d="M259.039,553.179L259.039,386.047L211.681,429.119" style="fill:none;stroke:black;stroke-width:17.8px;"/>
            <path d="M306.447,429.119L259.039,386.047" style="fill:none;stroke:black;stroke-width:17.8px;"/>
        </g>
    </g>
</svg>
