<?xml version="1.0" encoding="UTF-8" standalone="no"?>
<!DOCTYPE svg PUBLIC "-//W3C//DTD SVG 1.1//EN" "http://www.w3.org/Graphics/SVG/1.1/DTD/svg11.dtd">
<svg width="100%" height="100%" viewBox="0 0 275 312" version="1.1" xmlns="http://www.w3.org/2000/svg" xmlns:xlink="http://www.w3.org/1999/xlink" xml:space="preserve" xmlns:serif="http://www.serif.com/" style="fill-rule:evenodd;clip-rule:evenodd;stroke-linejoin:round;stroke-miterlimit:2;">
    <g transform="matrix(1,0,0,1,-145.527,-389.977)">
        <g>
            <path d="M210.174,472.325C212.614,473.559 213.509,473.65 215.185,475.942C218.207,480.073 217.312,486.776 213.018,489.917C210.521,491.743 209.709,491.799 206.31,491.854C184.859,492.338 165.823,511.092 165.609,533.952C165.5,569.057 165.5,604.163 165.609,639.269C165.812,661.015 184.066,681.156 206.845,681.374C257.372,681.541 307.9,681.541 358.427,681.374C380.109,681.167 399.449,662.126 399.663,639.269C399.771,604.163 399.771,569.057 399.663,533.952C399.458,512.127 381.115,491.919 358.126,491.846L355.038,491.346C352.606,490.097 351.711,490 350.05,487.698C347.054,483.547 347.992,476.85 352.307,473.737C355.228,471.629 356.449,471.706 360.93,471.908C377.487,472.656 393.605,480.589 404.469,493.189C414.101,504.361 419.524,519.04 419.663,533.827C419.771,569.016 419.771,604.205 419.663,639.393C419.368,670.791 393.202,700.064 360.535,701.329C359.876,701.355 359.216,701.367 358.556,701.374C308.07,701.54 257.584,701.375 207.097,701.375C190.11,701.319 173.226,693.792 161.788,681.146C151.551,669.829 145.753,654.749 145.609,639.393C145.5,604.205 145.5,569.016 145.609,533.827C145.904,502.264 172.064,473.156 204.738,471.892C206.567,471.821 208.375,472.046 210.174,472.325ZM281.266,390.094C282.87,389.871 283.275,390.029 283.804,390.068C283.979,390.097 284.152,390.129 284.324,390.166C286.176,390.513 287.917,391.346 289.361,392.599L342.627,440.993C347.287,445.424 346.389,454.121 340.624,457.209C337.016,459.142 332.361,458.558 329.178,455.796L292.636,422.596L292.636,587.784C292.519,590.552 292.125,591.303 291.366,592.661C288.354,598.053 279.902,599.383 275.417,594.703C274.042,593.269 273.116,591.431 272.78,589.474C272.652,588.729 272.668,588.537 272.636,587.784L272.636,422.612L236.155,455.792L235.503,456.336C234.886,456.768 234.743,456.898 234.074,457.249C228.384,460.235 220.162,456.146 219.478,449.405C219.22,446.87 219.975,444.25 221.545,442.24C222.01,441.644 222.163,441.526 222.698,440.996L275.908,392.602C276.491,392.116 276.623,391.974 277.265,391.565C277.426,391.462 277.59,391.364 277.757,391.272L277.779,391.259L277.818,391.238L277.841,391.225L277.86,391.215L277.914,391.185C278.596,390.82 279.319,390.535 280.066,390.336L280.068,390.336L280.072,390.335L280.135,390.318L280.189,390.305L280.197,390.302L280.205,390.3L280.246,390.29L280.315,390.273L280.327,390.271L280.333,390.269L280.356,390.264L280.456,390.241L280.457,390.241L280.458,390.24C280.5,390.231 280.543,390.222 280.586,390.213L280.588,390.212L280.599,390.21L280.69,390.191L280.708,390.188L280.719,390.186L280.747,390.18L280.802,390.17L280.83,390.165L280.85,390.161L280.876,390.156L280.914,390.15L280.954,390.143L280.982,390.138L281.001,390.135L281.026,390.131L281.083,390.122L281.114,390.117L281.125,390.115L281.139,390.113L281.234,390.099L281.246,390.097L281.248,390.097L281.251,390.096L281.266,390.094Z"/>
        </g>
    </g>
</svg>
