<?xml version="1.0" encoding="UTF-8" standalone="no"?>
<!DOCTYPE svg PUBLIC "-//W3C//DTD SVG 1.1//EN" "http://www.w3.org/Graphics/SVG/1.1/DTD/svg11.dtd">
<svg width="100%" height="100%" viewBox="0 0 271 271" version="1.1" xmlns="http://www.w3.org/2000/svg" xmlns:xlink="http://www.w3.org/1999/xlink" xml:space="preserve" xmlns:serif="http://www.serif.com/" style="fill-rule:evenodd;clip-rule:evenodd;stroke-linejoin:round;stroke-miterlimit:2;">
    <g transform="matrix(1,0,0,1,-894.615,-409.88)">
        <g transform="matrix(1.20831,0,0,1.20831,-242.661,-141.669)">
            <path d="M1053.06,554.157L1147.88,459.414C1148.47,458.877 1148.6,458.721 1149.26,458.266C1150.49,457.414 1151.91,456.844 1153.39,456.611C1155.08,456.343 1155.52,456.514 1156.08,456.552C1163.58,457.744 1167.63,467.433 1162.02,473.563L1067.2,568.293L1162.02,663.023C1164,665.183 1164.24,666.054 1164.65,667.649C1166.03,673.119 1161.78,679.388 1156.08,680.033C1153.1,680.369 1150.11,679.208 1147.88,677.171L1053.06,582.428L958.227,677.171C956.192,679.03 955.65,679.121 954.458,679.537C947.588,681.937 939.028,674.477 941.722,666.79C942.215,665.383 943.066,664.143 944.091,663.023L1038.91,568.293L944.091,473.563C939.111,468.119 941.725,458.216 949.149,456.693C950.828,456.348 951.267,456.498 951.827,456.511C955.677,456.943 955.816,457.213 958.227,459.414L1053.06,554.157Z"/>
        </g>
    </g>
</svg>
